<?xml version="1.0" encoding="UTF-8" standalone="no"?>
<svg
   xmlns:dc="http://purl.org/dc/elements/1.1/"
   xmlns:cc="http://creativecommons.org/ns#"
   xmlns:rdf="http://www.w3.org/1999/02/22-rdf-syntax-ns#"
   xmlns:svg="http://www.w3.org/2000/svg"
   xmlns="http://www.w3.org/2000/svg"
   xmlns:sodipodi="http://sodipodi.sourceforge.net/DTD/sodipodi-0.dtd"
   xmlns:inkscape="http://www.inkscape.org/namespaces/inkscape"
   data-name="Layer 1"
   viewBox="0 0 81.5 81.5"
   x="0px"
   y="0px"
   version="1.1"
   id="svg6"
   sodipodi:docname="noun_keto_3597861.svg"
   width="81.5"
   height="81.5"
   inkscape:version="1.0.2 (e86c870879, 2021-01-15)">
  <metadata
     id="metadata12">
    <rdf:RDF>
      <cc:Work
         rdf:about="">
        <dc:format>image/svg+xml</dc:format>
        <dc:type
           rdf:resource="http://purl.org/dc/dcmitype/StillImage" />
      </cc:Work>
    </rdf:RDF>
  </metadata>
  <defs
     id="defs10" />
  <sodipodi:namedview
     pagecolor="#ffffff"
     bordercolor="#666666"
     borderopacity="1"
     objecttolerance="10"
     gridtolerance="10"
     guidetolerance="10"
     inkscape:pageopacity="0"
     inkscape:pageshadow="2"
     inkscape:window-width="1920"
     inkscape:window-height="990"
     id="namedview8"
     showgrid="false"
     inkscape:zoom="4.816"
     inkscape:cx="40.75"
     inkscape:cy="53.25"
     inkscape:window-x="0"
     inkscape:window-y="32"
     inkscape:window-maximized="1"
     inkscape:current-layer="svg6" />
  <title
     id="title2">Ketogenic</title>
  <path
     d="M 40.75,0 A 40.75,40.75 0 1 0 81.5,40.75 40.8,40.8 0 0 0 40.75,0 Z m 0,79.5 A 38.75,38.75 0 1 1 79.5,40.75 38.79,38.79 0 0 1 40.75,79.5 Z M 48.5,37.23 a 3.44,3.44 0 0 0 -2.69,0.61 3.66,3.66 0 0 0 -1.24,4.66 v 0 a 2.87,2.87 0 0 0 2.51,1.44 3.56,3.56 0 0 0 2,-0.68 3.65,3.65 0 0 0 1.24,-4.66 2.8,2.8 0 0 0 -1.82,-1.37 z m -0.55,4.4 a 1.4,1.4 0 0 1 -1.09,0.29 0.82,0.82 0 0 1 -0.55,-0.41 1.68,1.68 0 0 1 0.67,-2 1.4,1.4 0 0 1 1.09,-0.29 0.82,0.82 0 0 1 0.55,0.41 1.68,1.68 0 0 1 -0.67,2 z m -6.15,5.59 a 3.71,3.71 0 0 0 -2.93,0.67 4,4 0 0 0 -1.36,5.07 3,3 0 0 0 2,1.49 3.35,3.35 0 0 0 0.71,0.07 3.81,3.81 0 0 0 2.23,-0.77 4,4 0 0 0 1.36,-5 3,3 0 0 0 -2.01,-1.53 z m -0.52,4.93 a 1.7,1.7 0 0 1 -1.33,0.34 1,1 0 0 1 -0.7,-0.51 v 0 a 2,2 0 0 1 0.79,-2.46 1.75,1.75 0 0 1 1.05,-0.37 1.33,1.33 0 0 1 0.28,0 1,1 0 0 1 0.7,0.51 2,2 0 0 1 -0.79,2.49 z m -10.41,-0.4 a 3.21,3.21 0 0 0 -3.61,2.11 2.41,2.41 0 0 0 0.29,2 2.94,2.94 0 0 0 2.06,1.27 3.12,3.12 0 0 0 0.52,0 3.18,3.18 0 0 0 3.1,-2.15 2.37,2.37 0 0 0 -0.3,-2 2.9,2.9 0 0 0 -2.06,-1.23 z m 0.44,2.71 v 0 a 1.29,1.29 0 0 1 -1.4,0.68 1,1 0 0 1 -0.68,-0.37 0.44,0.44 0 0 1 0,-0.37 1.23,1.23 0 0 1 1.13,-0.65 h 0.22 a 0.93,0.93 0 0 1 0.67,0.37 0.42,0.42 0 0 1 0.06,0.33 z M 63.03,38.04 v 0 l -9.84,-4.52 a 12.4,12.4 0 0 1 -1,1.76 l 7.74,3.56 v 0.05 c -0.32,0.39 -0.7,0.84 -1.14,1.34 a 3.59,3.59 0 0 0 -4.46,0 4.21,4.21 0 0 0 -1.44,5.38 3,3 0 0 0 0.31,0.45 C 46.33,52.92 37.08,61.51 34.64,63.75 L 23.49,55.21 c 1.26,-1.58 4.3,-5.39 7.81,-9.7 -0.52,0.24 -1.1,0.55 -1.7,0.89 a 23.22,23.22 0 0 1 -2.7,1.35 c -3.23,4 -5.58,6.95 -5.61,7 a 0.91,0.91 0 0 0 -0.18,0.37 0.86,0.86 0 0 0 0,0.23 c 0,0 0,0.09 0,0.14 a 1,1 0 0 0 0.39,0.68 l 12.62,9.69 v 0 a 0.69,0.69 0 0 0 0.19,0.1 h 0.09 a 0.86,0.86 0 0 0 0.28,0 v 0 a 0.9,0.9 0 0 0 0.28,0 c 0,0 22,-6.55 30.6,-9.12 2.18,-0.65 3.44,-2.64 3.53,-5.6 0.18,-4.97 -3.04,-11.95 -6.06,-13.2 z m -7.54,3.81 a 1.64,1.64 0 0 1 1.93,-0.1 c -0.83,0.89 -1.78,1.87 -2.8,2.91 v 0 a 2.28,2.28 0 0 1 0.87,-2.81 z M 65,55 38.52,62.89 c 6.07,-5.64 19,-17.87 23,-22.76 0.19,-0.23 0.34,-0.32 0.5,-0.32 a 1,1 0 0 1 0.26,0.06 c 2.09,0.77 5,6.9 4.87,11.38 C 67.05,53.34 66.34,54.6 65,55 Z M 21.33,44.34 a 4.56,4.56 0 0 0 1.59,0.28 9.92,9.92 0 0 0 4.71,-1.7 11.4,11.4 0 0 1 4.36,-1.73 C 42.94,40.1 47.56,34.75 47.75,34.54 v 0 a 9.87,9.87 0 0 0 2.41,-8.71 17.66,17.66 0 0 0 -5.1,-9.56 C 39.31,10.52 31.14,9.33 26.75,13.59 v 0 c -0.23,0.19 -5.56,4.81 -6.64,15.77 a 11.55,11.55 0 0 1 -1.7,4.39 c -1.07,1.89 -2.23,4 -1.42,6.3 l -2,2 a 3.22,3.22 0 0 0 -3.28,5.33 3.07,3.07 0 0 0 1.45,0.83 3.22,3.22 0 0 0 5.39,1.46 3.25,3.25 0 0 0 0.78,-3.29 z m 6.81,-29.29 a 7.47,7.47 0 0 1 5.39,-2 14.91,14.91 0 0 1 10.12,4.64 15.66,15.66 0 0 1 4.54,8.45 8,8 0 0 1 -1.91,7 c -3.53,3.61 -10.53,2.42 -15.53,-2.58 -5,-5 -6.16,-11.96 -2.61,-15.51 z m -8,19.64 a 13.15,13.15 0 0 0 2,-5.15 28.46,28.46 0 0 1 2,-8.3 17.13,17.13 0 0 0 5.2,10.73 17.15,17.15 0 0 0 10.76,5.2 28.81,28.81 0 0 1 -8.33,2 13,13 0 0 0 -5.14,2 c -2.51,1.42 -4.17,2.35 -6.51,0 -2.34,-2.35 -1.37,-3.97 0.03,-6.48 z m -2.87,12.06 a 1.22,1.22 0 1 1 -2.24,0.63 1,1 0 0 0 -0.29,-0.74 1,1 0 0 0 -0.7,-0.29 v 0 a 1.22,1.22 0 1 1 0.63,-2.24 1,1 0 0 0 1.26,-0.12 l 2.13,-2.13 a 10,10 0 0 0 0.71,0.8 9.76,9.76 0 0 0 0.8,0.7 l -2.13,2.13 a 1,1 0 0 0 -0.17,1.26 z m 20.35,-18 a 4,4 0 0 0 0.69,0.06 3.57,3.57 0 0 0 2.54,-1 c 1.59,-1.6 1.25,-4.45 -0.79,-6.48 -2.04,-2.03 -4.89,-2.39 -6.48,-0.79 -1.59,1.6 -1.25,4.44 0.79,6.48 a 6,6 0 0 0 3.25,1.67 z m -2.63,-6.79 a 1.58,1.58 0 0 1 1.12,-0.41 3.8,3.8 0 0 1 2.53,1.2 c 1.21,1.2 1.57,2.88 0.79,3.65 a 1.78,1.78 0 0 1 -1.51,0.38 4,4 0 0 1 -2.17,-1.23 c -1.17,-1.2 -1.53,-2.87 -0.76,-3.65 z"
     id="path4" />
</svg>
