<?xml version="1.0" encoding="UTF-8" standalone="no"?>
<svg
   xmlns:dc="http://purl.org/dc/elements/1.1/"
   xmlns:cc="http://creativecommons.org/ns#"
   xmlns:rdf="http://www.w3.org/1999/02/22-rdf-syntax-ns#"
   xmlns:svg="http://www.w3.org/2000/svg"
   xmlns="http://www.w3.org/2000/svg"
   xmlns:sodipodi="http://sodipodi.sourceforge.net/DTD/sodipodi-0.dtd"
   xmlns:inkscape="http://www.inkscape.org/namespaces/inkscape"
   version="1.1"
   x="0px"
   y="0px"
   viewBox="0 0 59.706123 60"
   xml:space="preserve"
   id="svg22"
   sodipodi:docname="noun_low carb_2176265.svg"
   width="59.706123"
   height="60"
   inkscape:version="1.0.2 (e86c870879, 2021-01-15)"><metadata
     id="metadata28"><rdf:RDF><cc:Work
         rdf:about=""><dc:format>image/svg+xml</dc:format><dc:type
           rdf:resource="http://purl.org/dc/dcmitype/StillImage" /></cc:Work></rdf:RDF></metadata><defs
     id="defs26" /><sodipodi:namedview
     pagecolor="#ffffff"
     bordercolor="#666666"
     borderopacity="1"
     objecttolerance="10"
     gridtolerance="10"
     guidetolerance="10"
     inkscape:pageopacity="0"
     inkscape:pageshadow="2"
     inkscape:window-width="703"
     inkscape:window-height="480"
     id="namedview24"
     showgrid="false"
     inkscape:zoom="7.525"
     inkscape:cx="29.706"
     inkscape:cy="38"
     inkscape:window-x="0"
     inkscape:window-y="32"
     inkscape:window-maximized="0"
     inkscape:current-layer="svg22" /><path
     d="M 3.143,42.022 1.414,40.293 0,41.707 l 1.73,1.73 c 0.102,1.432 0.685,6.256 3.985,9.557 2.952,2.952 7.119,3.728 8.993,3.932 V 60 h 2 v -3.075 c 1.874,-0.204 6.041,-0.98 8.993,-3.932 3.3,-3.301 3.883,-8.124 3.985,-9.557 l 1.73,-1.73 -1.414,-1.414 -1.729,1.729 c -0.405,0.029 -1.077,0.097 -1.916,0.253 2.724,-3.246 3.235,-7.508 3.33,-8.839 l 1.73,-1.73 -1.414,-1.414 -1.729,1.729 c -0.405,0.029 -1.077,0.097 -1.916,0.253 2.724,-3.246 3.235,-7.508 3.33,-8.839 l 1.73,-1.73 -1.414,-1.414 -1.729,1.729 c -0.405,0.029 -1.077,0.097 -1.916,0.253 2.724,-3.246 3.235,-7.508 3.33,-8.839 l 1.73,-1.73 -1.414,-1.414 -1.729,1.729 c -1.206,0.086 -4.814,0.517 -7.897,2.621 0.198,-0.834 0.327,-1.718 0.327,-2.639 0,-4.574 -3.035,-8.317 -4,-9.392 V 0 h -2 v 2.608 c -0.965,1.075 -4,4.818 -4,9.392 0,0.921 0.129,1.805 0.334,2.644 C 7.956,12.539 4.348,12.108 3.143,12.023 L 1.414,10.294 0,11.708 l 1.73,1.73 c 0.095,1.331 0.606,5.593 3.33,8.839 C 4.221,22.12 3.549,22.052 3.144,22.024 l -1.729,-1.729 -1.414,1.414 1.73,1.73 c 0.095,1.331 0.606,5.593 3.33,8.839 C 4.222,32.121 3.55,32.053 3.145,32.025 l -1.729,-1.729 -1.414,1.414 1.73,1.73 c 0.095,1.331 0.606,5.593 3.33,8.839 C 4.22,42.119 3.548,42.051 3.143,42.022 Z m 13.563,4.903 c 0.372,-0.041 0.827,-0.103 1.352,-0.201 -0.534,0.636 -0.975,1.312 -1.352,1.997 z m 0,-10 c 0.372,-0.041 0.827,-0.103 1.352,-0.201 -0.534,0.636 -0.975,1.312 -1.352,1.997 z m 0,-10 c 0.372,-0.041 0.827,-0.103 1.352,-0.201 -0.534,0.636 -0.975,1.312 -1.352,1.997 z m -2,1.796 c -0.377,-0.685 -0.819,-1.361 -1.352,-1.997 0.525,0.098 0.981,0.161 1.352,0.201 z m 0,10 c -0.377,-0.685 -0.819,-1.361 -1.352,-1.997 0.525,0.098 0.981,0.161 1.352,0.201 z m 0,10 c -0.377,-0.685 -0.819,-1.361 -1.352,-1.997 0.525,0.098 0.981,0.161 1.352,0.201 z M 7.127,51.579 C 4.789,49.24 4.044,45.847 3.811,44.102 c 1.741,0.231 5.126,0.971 7.474,3.318 2.338,2.339 3.083,5.732 3.316,7.477 -1.741,-0.231 -5.126,-0.97 -7.474,-3.318 z m 17.158,0 c -2.337,2.337 -5.729,3.081 -7.473,3.315 0.234,-1.744 0.979,-5.137 3.316,-7.474 2.337,-2.337 5.729,-3.081 7.473,-3.315 -0.235,1.745 -0.979,5.137 -3.316,7.474 z m 0,-10 c -2.337,2.337 -5.729,3.081 -7.473,3.315 0.234,-1.744 0.979,-5.137 3.316,-7.474 2.337,-2.337 5.729,-3.081 7.473,-3.315 -0.235,1.745 -0.979,5.137 -3.316,7.474 z m 0,-10 c -2.337,2.337 -5.729,3.081 -7.473,3.315 0.234,-1.744 0.979,-5.137 3.316,-7.474 2.337,-2.337 5.729,-3.081 7.473,-3.315 -0.235,1.745 -0.979,5.137 -3.316,7.474 z m 0,-10 c -2.337,2.337 -5.729,3.081 -7.473,3.315 0.234,-1.744 0.979,-5.137 3.316,-7.474 2.337,-2.337 5.729,-3.081 7.473,-3.315 -0.235,1.745 -0.979,5.137 -3.316,7.474 z M 15.706,4.528 c 1.078,1.354 3,4.228 3,7.472 0,3.244 -1.922,6.117 -3,7.472 -1.078,-1.354 -3,-4.228 -3,-7.472 0,-3.244 1.922,-6.117 3,-7.472 z m -4.421,12.893 c 2.338,2.339 3.083,5.732 3.316,7.477 C 12.86,24.667 9.475,23.927 7.127,21.58 4.789,19.241 4.044,15.848 3.811,14.103 c 1.741,0.231 5.126,0.97 7.474,3.318 z m 0,10 c 2.338,2.339 3.083,5.732 3.316,7.477 C 12.86,34.667 9.475,33.927 7.127,31.58 4.789,29.241 4.044,25.848 3.811,24.103 c 1.741,0.231 5.126,0.97 7.474,3.318 z m 0,10 c 2.338,2.339 3.083,5.732 3.316,7.477 C 12.86,44.667 9.475,43.927 7.127,41.58 4.789,39.241 4.044,35.848 3.811,34.103 c 1.741,0.231 5.126,0.97 7.474,3.318 z"
     id="path2" /><path
     d="m 42.706,46 h -4 c -0.388,0 -0.741,0.225 -0.906,0.576 -0.165,0.351 -0.111,0.766 0.138,1.064 l 10,12 c 0.19,0.228 0.471,0.36 0.768,0.36 0.297,0 0.578,-0.132 0.768,-0.359 l 10,-12 c 0.249,-0.299 0.302,-0.714 0.138,-1.064 C 59.447,46.225 59.094,46 58.706,46 h -4 V 14 h -2 v 33 c 0,0.553 0.448,1 1,1 h 2.865 L 48.706,57.438 40.841,48 h 2.865 c 0.552,0 1,-0.447 1,-1 V 15 h -2 z"
     id="path4" /><rect
     x="52.706001"
     y="10"
     width="2"
     height="2"
     id="rect6" /><rect
     x="52.706001"
     y="0"
     width="2"
     height="8"
     id="rect8" /><rect
     x="48.706001"
     y="19"
     width="2"
     height="2"
     id="rect10" /><rect
     x="48.706001"
     y="15"
     width="2"
     height="2"
     id="rect12" /><rect
     x="48.706001"
     y="11"
     width="2"
     height="2"
     id="rect14" /><rect
     x="48.706001"
     y="23"
     width="2"
     height="10"
     id="rect16" /><rect
     x="42.706001"
     y="7"
     width="2"
     height="6"
     id="rect18" /><rect
     x="42.706001"
     y="3"
     width="2"
     height="2"
     id="rect20" /></svg>
